<svg width="100" height="100" xmlns="http://www.w3.org/2000/svg">

 <g>
  <title>background</title>
  <rect fill="none" id="canvas_background" height="402" width="582" y="-1" x="-1"/>
 </g>
 <g>
  <title>Layer 1</title>
  <path stroke="null" fill="#0f0e0e" id="svg_2" d="m70.137421,70.736289l-47.322201,0c-2.820614,0 -5.117158,-3.109 -5.117158,-6.932l0,-35.986c0,-3.821 2.296544,-6.932 5.117158,-6.932l47.322201,0c2.821422,0 5.117158,3.11 5.117158,6.932l0,35.986c0,3.822 -2.295736,6.932 -5.117158,6.932zm-47.322201,-43.699c-0.584633,0 -0.943973,0.505 -0.943973,0.78l0,35.986c0,0.275 0.35934,0.78 0.943973,0.78l47.322201,0c0.584633,0 0.943973,-0.505 0.943973,-0.78l0,-35.985c0,-0.275 -0.35934,-0.78 -0.943973,-0.78l-47.322201,0l0,-0.001z"/>
  <polygon stroke="null" fill="#111010" id="svg_3" points="71.32832819223404,30.59999942779541 46.13874155282974,49.131001472473145 21.439179480075836,30.60899829864502 18.68306452035904,35.2319974899292 46.08007150888443,55.77700138092041 74.05193811655045,35.249999046325684 "/>
 </g>
</svg>